<svg class="border shadow-md" viewBox="0 0 1216.16 684.09" style="width: 1216.16px; height: 684.09px;" xmlns="http://www.w3.org/2000/svg" preserveAspectRatio="none"><rect class="bg" id="bg" x="0" y="0" width="1216.16" height="684.09" fill="#ffffff"/><path d="M 0 -68.409 L 0 -68.41&#10;                L 81.08 -34.20&#10;                L 243.23200000000003 -68.41 L 243.23200000000003 -68.41&#10;                L 324.31 -15.41&#10;                L 486.46400000000006 -68.41 L 486.46400000000006 -68.41&#10;                L 657.46 -34.20&#10;                L 729.6960000000001 -68.41 L 729.6960000000001 -68.41&#10;                L 810.77 -34.20&#10;                L 972.9280000000001 -68.41 L 972.9280000000001 -68.41&#10;                L 1124.93 -6.41&#10;                L 1216.16 -68.41 L 1216.16 -68.41&#10;                L 1297.24 -34.20&#10;                L 1459.392 -68.41  V 684.09 H 0 V -68.41 Z" fill="#003F91"/><path d="M 0 0 L 0 0.00&#10;                L 167.00 62.00&#10;                L 243.23200000000003 0.00 L 243.23200000000003 0.00&#10;                L 324.31 50.00&#10;                L 486.46400000000006 0.00 L 486.46400000000006 0.00&#10;                L 567.54 58.00&#10;                L 729.6960000000001 0.00 L 729.6960000000001 0.00&#10;                L 810.77 34.20&#10;                L 972.9280000000001 0.00 L 972.9280000000001 0.00&#10;                L 1107.93 34.20&#10;                L 1216.16 0.00 L 1216.16 0.00&#10;                L 1362.16 34.20&#10;                L 1459.392 0.00  V 684.09 H 0 V 0.00 Z" fill="#003b8b"/><path d="M 0 68.409 L 0 68.41&#10;                L 81.08 122.41&#10;                L 243.23200000000003 68.41 L 243.23200000000003 68.41&#10;                L 324.31 112.41&#10;                L 486.46400000000006 68.41 L 486.46400000000006 68.41&#10;                L 567.54 102.61&#10;                L 729.6960000000001 68.41 L 729.6960000000001 68.41&#10;                L 810.77 111.41&#10;                L 972.9280000000001 68.41 L 972.9280000000001 68.41&#10;                L 1054.01 130.41&#10;                L 1216.16 68.41 L 1216.16 68.41&#10;                L 1299.16 109.41&#10;                L 1459.392 68.41  V 684.09 H 0 V 68.41 Z" fill="#003785"/><path d="M 0 136.818 L 0 136.82&#10;                L 151.00 171.82&#10;                L 243.23200000000003 136.82 L 243.23200000000003 136.82&#10;                L 324.31 185.82&#10;                L 486.46400000000006 136.82 L 486.46400000000006 136.82&#10;                L 643.46 171.02&#10;                L 729.6960000000001 136.82 L 729.6960000000001 136.82&#10;                L 830.70 171.02&#10;                L 972.9280000000001 136.82 L 972.9280000000001 136.82&#10;                L 1054.01 171.02&#10;                L 1216.16 136.82 L 1216.16 136.82&#10;                L 1371.16 171.02&#10;                L 1459.392 136.82  V 684.09 H 0 V 136.82 Z" fill="#00337f"/><path d="M 0 205.22700000000003 L 0 205.23&#10;                L 81.08 270.23&#10;                L 243.23200000000003 205.23 L 243.23200000000003 205.23&#10;                L 424.23 270.23&#10;                L 486.46400000000006 205.23 L 486.46400000000006 205.23&#10;                L 583.46 243.23&#10;                L 729.6960000000001 205.23 L 729.6960000000001 205.23&#10;                L 839.70 243.23&#10;                L 972.9280000000001 205.23 L 972.9280000000001 205.23&#10;                L 1071.93 239.43&#10;                L 1216.16 205.23 L 1216.16 205.23&#10;                L 1387.16 267.23&#10;                L 1459.392 205.23  V 684.09 H 0 V 205.23 Z" fill="#002f79"/><path d="M 0 273.636 L 0 273.64&#10;                L 81.08 307.84&#10;                L 243.23200000000003 273.64 L 243.23200000000003 273.64&#10;                L 411.23 324.64&#10;                L 486.46400000000006 273.64 L 486.46400000000006 273.64&#10;                L 572.46 317.64&#10;                L 729.6960000000001 273.64 L 729.6960000000001 273.64&#10;                L 873.70 307.84&#10;                L 972.9280000000001 273.64 L 972.9280000000001 273.64&#10;                L 1142.93 340.64&#10;                L 1216.16 273.64 L 1216.16 273.64&#10;                L 1346.16 307.84&#10;                L 1459.392 273.64  V 684.09 H 0 V 273.64 Z" fill="#002b73"/><path d="M 0 342.045 L 0 342.05&#10;                L 115.00 376.25&#10;                L 243.23200000000003 342.05 L 243.23200000000003 342.05&#10;                L 406.23 376.25&#10;                L 486.46400000000006 342.05 L 486.46400000000006 342.05&#10;                L 567.54 402.05&#10;                L 729.6960000000001 342.05 L 729.6960000000001 342.05&#10;                L 810.77 376.25&#10;                L 972.9280000000001 342.05 L 972.9280000000001 342.05&#10;                L 1054.01 385.05&#10;                L 1216.16 342.05 L 1216.16 342.05&#10;                L 1338.16 381.05&#10;                L 1459.392 342.05  V 684.09 H 0 V 342.05 Z" fill="#00276d"/><path d="M 0 410.45400000000006 L 0 410.45&#10;                L 181.00 444.66&#10;                L 243.23200000000003 410.45 L 243.23200000000003 410.45&#10;                L 390.23 444.66&#10;                L 486.46400000000006 410.45 L 486.46400000000006 410.45&#10;                L 583.46 444.66&#10;                L 729.6960000000001 410.45 L 729.6960000000001 410.45&#10;                L 810.77 474.45&#10;                L 972.9280000000001 410.45 L 972.9280000000001 410.45&#10;                L 1054.01 444.66&#10;                L 1216.16 410.45 L 1216.16 410.45&#10;                L 1297.24 469.45&#10;                L 1459.392 410.45  V 684.09 H 0 V 410.45 Z" fill="#002367"/><path d="M 0 478.86300000000006 L 0 478.86&#10;                L 134.00 513.07&#10;                L 243.23200000000003 478.86 L 243.23200000000003 478.86&#10;                L 324.31 513.07&#10;                L 486.46400000000006 478.86 L 486.46400000000006 478.86&#10;                L 622.46 518.86&#10;                L 729.6960000000001 478.86 L 729.6960000000001 478.86&#10;                L 810.77 519.86&#10;                L 972.9280000000001 478.86 L 972.9280000000001 478.86&#10;                L 1054.01 519.86&#10;                L 1216.16 478.86 L 1216.16 478.86&#10;                L 1377.16 530.86&#10;                L 1459.392 478.86  V 684.09 H 0 V 478.86 Z" fill="#001f61"/><path d="M 0 547.272 L 0 547.27&#10;                L 125.00 581.48&#10;                L 243.23200000000003 547.27 L 243.23200000000003 547.27&#10;                L 396.23 581.48&#10;                L 486.46400000000006 547.27 L 486.46400000000006 547.27&#10;                L 618.46 584.27&#10;                L 729.6960000000001 547.27 L 729.6960000000001 547.27&#10;                L 810.77 596.27&#10;                L 972.9280000000001 547.27 L 972.9280000000001 547.27&#10;                L 1054.01 581.48&#10;                L 1216.16 547.27 L 1216.16 547.27&#10;                L 1297.24 605.27&#10;                L 1459.392 547.27  V 684.09 H 0 V 547.27 Z" fill="#001b5b"/><path d="M 0 615.681 L 0 615.68&#10;                L 115.00 682.68&#10;                L 243.23200000000003 615.68 L 243.23200000000003 615.68&#10;                L 401.23 649.89&#10;                L 486.46400000000006 615.68 L 486.46400000000006 615.68&#10;                L 613.46 649.89&#10;                L 729.6960000000001 615.68 L 729.6960000000001 615.68&#10;                L 901.70 649.89&#10;                L 972.9280000000001 615.68 L 972.9280000000001 615.68&#10;                L 1130.93 649.89&#10;                L 1216.16 615.68 L 1216.16 615.68&#10;                L 1297.24 649.89&#10;                L 1459.392 615.68  V 684.09 H 0 V 615.68 Z" fill="#001755"/></svg>