<svg class="border shadow-md" viewBox="0 0 750.64 750.64" xmlns="http://www.w3.org/2000/svg" preserveAspectRatio="none" style="width: 750.64px; height: 750.64px;"><rect class="bg" id="bg" x="0" y="0" width="750.64" height="750.64" fill="#ffffff"/><g transform="rotate(0 375.32 375.32)"><path d="M -475.32 -45.06 S -247.66 -82.60&#10;            0.00 -45.06 194.32 -86.06&#10;            475.32 -45.06 661.64 -104.06&#10;            950.64 -45.06 1178.30 -82.60&#10;            1425.96 -45.06 h 110 V 950.64 H -475.32 Z" fill="#003F91" id="-1"/><path d="M -475.32 30.00 S -401.00 -7.53&#10;            0.00 30.00 170.32 -35.00&#10;            475.32 30.00 607.64 -7.53&#10;            950.64 30.00 1178.30 -32.00&#10;            1425.96 30.00 h 110 V 950.64 H -475.32 Z" fill="#003b8b" id="0"/><path id="1" d="M -475.32 105.06 S -458.00 42.06&#10;            0.00 105.06 168.32 67.53&#10;            475.32 105.06 702.98 67.53&#10;            950.64 105.06 948.96 67.06&#10;            1425.96 105.06 h 110 V 950.64 H -475.32 Z" fill="#003785"/><path id="2" d="M -475.32 180.13 S -247.66 129.13&#10;            0.00 180.13 191.32 142.60&#10;            475.32 180.13 702.98 142.60&#10;            950.64 180.13 945.96 142.60&#10;            1425.96 180.13 h 110 V 950.64 H -475.32 Z" fill="#00337f"/><path id="3" d="M -475.32 255.19 S -247.66 217.66&#10;            0.00 255.19 35.32 188.19&#10;            475.32 255.19 566.64 186.19&#10;            950.64 255.19 1178.30 217.66&#10;            1425.96 255.19 h 110 V 950.64 H -475.32 Z" fill="#002f79"/><path id="4" d="M -475.32 330.26 S -325.00 292.72&#10;            0.00 330.26 2.32 292.72&#10;            475.32 330.26 479.64 292.72&#10;            950.64 330.26 1129.96 277.26&#10;            1425.96 330.26 h 110 V 950.64 H -475.32 Z" fill="#002b73"/><path id="5" d="M -475.32 405.32 S -287.00 347.32&#10;            0.00 405.32 227.66 359.32&#10;            475.32 405.32 702.98 367.79&#10;            950.64 405.32 1178.30 367.79&#10;            1425.96 405.32 h 110 V 950.64 H -475.32 Z" fill="#00276d"/><path id="6" d="M -475.32 480.38 S -247.66 442.85&#10;            0.00 480.38 227.66 438.38&#10;            475.32 480.38 547.64 414.38&#10;            950.64 480.38 1057.96 424.38&#10;            1425.96 480.38 h 110 V 950.64 H -475.32 Z" fill="#002367"/><path id="7" d="M -475.32 555.45 S -247.66 505.45&#10;            0.00 555.45 84.32 516.45&#10;            475.32 555.45 536.64 491.45&#10;            950.64 555.45 1178.30 517.92&#10;            1425.96 555.45 h 110 V 950.64 H -475.32 Z" fill="#001f61"/><path id="8" d="M -475.32 630.51 S -247.66 592.98&#10;            0.00 630.51 97.32 592.98&#10;            475.32 630.51 702.98 560.51&#10;            950.64 630.51 1178.30 589.51&#10;            1425.96 630.51 h 110 V 950.64 H -475.32 Z" fill="#001b5b"/><path id="9" d="M -475.32 705.58 S -247.66 652.58&#10;            0.00 705.58 97.32 668.04&#10;            475.32 705.58 702.98 668.04&#10;            950.64 705.58 1084.96 668.04&#10;            1425.96 705.58 h 110 V 950.64 H -475.32 Z" fill="#001755"/></g></svg>