<?xml version="1.0" encoding="UTF-8"?>
<svg xmlns="http://www.w3.org/2000/svg" xmlns:xlink="http://www.w3.org/1999/xlink" width="1437px" height="100px" viewBox="0 0 1437 100" version="1.1">
<g id="surface1">
<path style=" stroke:none;fill-rule:nonzero;fill:rgb(0%,24.705882%,56.862745%);fill-opacity:1;" d="M -1 50 L 39 56.65625 C 79 63.4375 159 76.5625 239 80 C 319 83.4375 399 76.5625 479 63.34375 C 559 50 639 30 719 30 C 799 30 879 50 959 51.65625 C 1039 53.4375 1119 36.5625 1199 33.34375 C 1279 30 1359 40 1399 45 L 1439 50 L 1439 100 L 1399 100 C 1359 100 1279 100 1199 100 C 1119 100 1039 100 959 100 C 879 100 799 100 719 100 C 639 100 559 100 479 100 C 399 100 319 100 239 100 C 159 100 79 100 39 100 L -1 100 Z M -1 50 "/>
</g>
</svg>
