<svg width="1728" height="80" viewBox="0 0 1728 80" fill="none" xmlns="http://www.w3.org/2000/svg">
<path fill-rule="evenodd" clip-rule="evenodd" d="M1728 80V10.5C1728 10.5 1683 22 1625 31.5C1567 41 1463 42 1434.5 41C1406 40 1292.5 31 1245.5 27C1217.97 24.6569 1158.01 18.7107 1108.34 13.7847C1073.21 10.3015 1043.23 7.32843 1033.5 6.5C1010 4.5 939.5 0.5 888.5 1C837.5 1.5 756.5 8.5 720 13.5C709.698 14.9113 691.587 17.677 669.762 21.01C614.264 29.4854 534.746 41.629 498.5 44.5C448 48.5 335 55.5 279 55C223 54.5 143 49 103.5 45.5C64 42 0 37 0 37V80H1728Z" fill="#003F91"/>
</svg>
